# xmcd
#
# Track frame offsets: 
#        150
#        13157
#        26785
#        40292
#        50245
#        62717
#        75880
#        89430
#        103632
#        118872
#        131917
#        143020
#        154234
#        163370
#        178865
#        191015
#        202040
#        213192
#        226815
#        237777
#        248922
#        265690
#        277570
#        289200
#        301952
#        315517
#        329244
#
# Disc length: 4549 seconds
#
# Revision: 0
# Processed by: cddbd v1.5.1PL0 Copyright (c) Steve Scherf et al.
# Submitted via: ExactAudioCopy v0.90b4
#
DISCID=8e11c31b
DTITLE=Various Artist - O Brothers!
DYEAR=2002
DGENRE=Bluegrass
TTITLE0=Carter Family - Keep On The Sunny Side
TTITLE1=Blue Sky Boys - Turn Your Radio On
TTITLE2=Delmore Bros - Blue Railroad Train
TTITLE3=Monroe Bros - Nine Pound Hammer Is Too Heavy
TTITLE4=J.E.Mainer's Mountaineers - Maple On The Hill
TTITLE5=Lone Star Cowboys - Just Because
TTITLE6=Stanley Bros - A Vision Of Mother
TTITLE7=Carter Family - You Are My Flower
TTITLE8=Blue Sky Boys - Down On The Banks Of The Ohio
TTITLE9=Coon Creek Girls - Banjo Pickin' Girl
TTITLE10=Anglin Bros - Southern Whoopee Song
TTITLE11=Girls Of The Golden West - Roll Along Prairie Moon
TTITLE12=Maddox Bros and Rose - Eight Thirty Blues
TTITLE13=Dixon Bros - Weaver's Life
TTITLE14=Delmore Bros - Weary Lonesome Blues
TTITLE15=Wade Mainer and Zeke Morris - Short Life and It's Trouble
TTITLE16=Masters Family - From 40 To 65
TTITLE17=Cofer Bros - Keno, The Rent Man
TTITLE18=Louvin Bros - You'll Be Rewarded Over There
TTITLE19=Monroe Bros - Roll In My Sweet Baby's Arms
TTITLE20=Dixon Bros - I Didn't Hear Nobody Pray
TTITLE21=Blue Sky Boys - Sunny Side Of Life
TTITLE22=Stanley Bros - The Fields Have Turned Brown
TTITLE23=Delmore Bros - Goin' Back To The Blue Ridge Mountains
TTITLE24=Carlisle Bros - Broken Heart
TTITLE25=Masters Family - That Little Old Country Church House
TTITLE26=Blue Sky Boys - Are You From Dixie
EXTD=
EXTT0=
EXTT1=
EXTT2=
EXTT3=
EXTT4=
EXTT5=
EXTT6=
EXTT7=
EXTT8=
EXTT9=
EXTT10=
EXTT11=
EXTT12=
EXTT13=
EXTT14=
EXTT15=
EXTT16=
EXTT17=
EXTT18=
EXTT19=
EXTT20=
EXTT21=
EXTT22=
EXTT23=
EXTT24=
EXTT25=
EXTT26=
PLAYORDER=
